<?xml version="1.0" encoding="utf-8"?>
<!-- Generator: Adobe Illustrator 23.0.1, SVG Export Plug-In . SVG Version: 6.00 Build 0)  -->
<svg version="1.1" id="Camada_1" xmlns="http://www.w3.org/2000/svg" xmlns:xlink="http://www.w3.org/1999/xlink" x="0px" y="0px"
	 viewBox="0 0 841.89 595.28" style="enable-background:new 0 0 841.89 595.28;" xml:space="preserve">
<style type="text/css">
	.st0{fill:#39B44A;}
	.st1{fill:#FFFFFF;}
	.st2{font-family:'JerseyM54';}
	.st3{font-size:118px;}
	.st4{font-size:187px;}
	.st5{opacity:0.21;}
	.st6{opacity:0.28;}
</style>
<circle class="st0" cx="429.49" cy="297.64" r="282"/>
<path class="st1" d="M422.55,215.05c4.98-0.02,9.96,0.12,14.95,0.18c121.76,1.47,131.35,1.32,131.41,0.5
	c0.07-1.17-19.23-3.9-92.73-10.3c18.09-17.73,36.18-35.46,54.28-53.2c-23.24,15-46.47,29.99-69.71,44.99
	c11.05-26.95,22.11-53.91,33.16-80.86c-15.95,24.65-31.89,49.3-47.84,73.95c-3.61-29.76-7.22-59.52-10.83-89.28
	c-5.22,29.39-10.43,58.78-15.65,88.16c-18.23-23.05-36.46-46.11-54.69-69.16c12.89,24.78,25.78,49.56,38.67,74.33
	c-23.72-9.11-47.44-18.22-71.17-27.33c17.67,12.33,35.33,24.67,53,37c-31.78,3.31-63.55,6.61-95.33,9.92
	C388.33,214.86,417.59,215.06,422.55,215.05z"/>
<path class="st1" d="M915,399"/>
<text transform="matrix(0.9957 0 0 1 289.0634 316.1707)" class="st1 st2 st3">GREEN</text>
<g>
	<text transform="matrix(1 0 0 1 290.0728 463.168)" class="st1 st2 st4">LINE</text>
</g>
<path class="st1" d="M315.06,232.78"/>
<path class="st1" d="M423.65,207.79"/>
<path class="st0" d="M431.16,216.86c-2.91-0.01-5.82-0.02-8.73-0.04c2.8-0.39,5.61-0.78,8.41-1.18l-7.85-2.79l-3.43-3.33l5.22,1.46
	l5.7,4.36l-5.82-6.63l-1.67-5.43l-0.18-0.69l4.75,4.45l3.1,8.18l-1.34-9.97l1.71-6.03l1.79,6.12l-1.79,10.15l3.45-8.45l4.76-4.48
	l-1.67,5.67l-6.15,7.28l6.12-4.84l5.02-1.1l-3.7,3.61l-7.14,2.39c3.49,0.49,6.97,0.98,10.46,1.47c-3.27-0.07-6.54-0.13-9.8-0.2"/>
<path class="st0" d="M398.68,191.22"/>
<circle class="st0" cx="-541.05" cy="227.46" r="282"/>
<path class="st5" d="M-551.82,144.86c4.98-0.02,9.96,0.12,14.95,0.18c121.76,1.47,131.35,1.32,131.41,0.5
	c0.07-1.17-19.23-3.9-92.73-10.3c18.09-17.73,36.18-35.46,54.28-53.2c-23.24,15-46.47,29.99-69.71,44.99
	c11.05-26.95,22.11-53.91,33.16-80.86c-15.95,24.65-31.89,49.3-47.84,73.95c-3.61-29.76-7.22-59.52-10.83-89.28
	c-5.22,29.39-10.43,58.78-15.65,88.16c-18.23-23.05-36.46-46.11-54.69-69.16c12.89,24.78,25.78,49.56,38.67,74.33
	c-23.72-9.11-47.44-18.22-71.17-27.33c17.67,12.33,35.33,24.67,53,37c-31.78,3.31-63.55,6.61-95.33,9.92
	C-586.04,144.67-556.79,144.88-551.82,144.86z"/>
<text transform="matrix(0.9957 0 0 1 -693.8122 245.9859)" class="st2 st3" style="opacity:0.14;">GREEN</text>
<g class="st6">
	<text transform="matrix(1 0 0 1 -692.4788 392.9838)" class="st2 st4">LINE</text>
</g>
<path class="st1" d="M-548.82,144.86c4.98-0.02,9.96,0.12,14.95,0.18c121.76,1.47,131.35,1.32,131.41,0.5
	c0.07-1.17-19.23-3.9-92.73-10.3c18.09-17.73,36.18-35.46,54.28-53.2c-23.24,15-46.47,29.99-69.71,44.99
	c11.05-26.95,22.11-53.91,33.16-80.86c-15.95,24.65-31.89,49.3-47.84,73.95c-3.61-29.76-7.22-59.52-10.83-89.28
	c-5.22,29.39-10.43,58.78-15.65,88.16c-18.23-23.05-36.46-46.11-54.69-69.16c12.89,24.78,25.78,49.56,38.67,74.33
	c-23.72-9.11-47.44-18.22-71.17-27.33c17.67,12.33,35.33,24.67,53,37c-31.78,3.31-63.55,6.61-95.33,9.92
	C-583.04,144.67-553.79,144.88-548.82,144.86z"/>
<text transform="matrix(0.9957 0 0 1 -689.8124 245.9861)" class="st1 st2 st3">GREEN</text>
<g>
	<text transform="matrix(1 0 0 1 -689.8122 392.9833)" class="st1 st2 st4">LINE</text>
</g>
<path class="st1" d="M-655.47,162.59"/>
<path class="st1" d="M-546.89,137.6"/>
<path class="st0" d="M-539.37,146.68c-2.91-0.01-5.82-0.02-8.73-0.04c2.8-0.39,5.61-0.78,8.41-1.18l-7.85-2.79l-3.43-3.33l5.22,1.46
	l5.7,4.36l-5.82-6.63l-1.67-5.43l-0.18-0.69l4.75,4.45l3.1,8.18l-1.34-9.97l1.71-6.03l1.79,6.12l-1.79,10.15l3.45-8.45l4.76-4.48
	l-1.67,5.67l-6.15,7.28l6.12-4.84l5.02-1.1l-3.7,3.61l-7.14,2.39c3.49,0.49,6.97,0.98,10.46,1.47c-3.27-0.07-6.54-0.13-9.8-0.2"/>
<path class="st0" d="M-571.86,121.04"/>
</svg>
